<?xml version="1.0" encoding="UTF-8" standalone="no"?>
<svg
   width="145.69983"
   height="155.63158"
   version="1.1"
   id="svg44"
   sodipodi:docname="scalable.svg"
   inkscape:version="1.2.2 (b0a8486, 2022-12-01)"
   xmlns:inkscape="http://www.inkscape.org/namespaces/inkscape"
   xmlns:sodipodi="http://sodipodi.sourceforge.net/DTD/sodipodi-0.dtd"
   xmlns="http://www.w3.org/2000/svg"
   xmlns:svg="http://www.w3.org/2000/svg">
  <defs
     id="defs48" />
  <sodipodi:namedview
     id="namedview46"
     pagecolor="#505050"
     bordercolor="#eeeeee"
     borderopacity="1"
     inkscape:showpageshadow="0"
     inkscape:pageopacity="0"
     inkscape:pagecheckerboard="0"
     inkscape:deskcolor="#505050"
     showgrid="false"
     inkscape:zoom="2.1640625"
     inkscape:cx="87.104693"
     inkscape:cy="92.880866"
     inkscape:window-width="1366"
     inkscape:window-height="712"
     inkscape:window-x="0"
     inkscape:window-y="0"
     inkscape:window-maximized="1"
     inkscape:current-layer="svg44" />
  <path
     fill="#0f2740"
     d="m 30.488785,0.08452296 c 7.056,-0.21525 14.14175,0.048 21.201,0.0525 l 32.61275,-0.042 c 7.31975,-0.0027 14.62625,0.0705 21.946005,-0.02775 5.15,-0.069 9.69275,0.53375 13.519,4.30200004 2.279,2.24475 3.99225,5.1975 4.6485,8.341 0.63,3.017 0.4325,6.25225 0.4245,9.3185 l -0.0162,10.41825 q -0.0848,18.9645 0.0272,37.92825 c 1.5255,-0.9975 2.83725,-1.925 4.62425,-2.38325 0.49775,0.1535 0.93025,0.30025 1.32925,0.64625 1.87275,1.6235 7.3005,9.24225 8.469,11.468 0.29325,0.55875 0.5285,1.1665 0.56125,1.80325 0.112,2.18525 -6.23475,6.91375 -7.84525,8.81025 0.407,1.551 1.0235,3.054 1.58575,4.5535 2.32625,0.27125 9.2225,1.103 11.08425,2.0995 0.44275,0.52275 0.61525,1.2025 0.7345,1.8665 0.3495,1.940997 0.62625,12.271247 -0.5135,13.567247 -0.93025,1.0575 -9.43,2.26325 -11.31,2.561 -0.47075,1.20075 -0.801,2.4745 -1.176,3.70875 1.8545,2.043 7.57425,6.766 8.49425,8.6215 0.20825,0.4205 0.0962,0.8685 -0.0595,1.2915 -0.674,1.832 -6.38375,9.62225 -7.856,11.19925 -0.407,0.43575 -0.8745,0.8465 -1.434,1.07325 -1.72575,0.6995 -9.536,-4.21 -11.728,-5.20725 l -2.72125,2.71125 q 0.31225,3.024 0.67425,6.0425 c 0.25025,1.3905 0.68875,3.00825 0.44175,4.4135 -0.17575,0.9995 -0.5755,1.50725 -1.42075,2.0585 -1.633,1.0655 -9.34325,3.8825 -11.371,4.285 -0.42175,0.0837 -0.7405,0.0937 -1.16125,-0.002 -0.6895,-0.157 -1.20225,-0.492 -1.665,-1.02025 -1.1415,-1.30275 -1.867,-3.10575 -2.663005,-4.64375 -0.852,-1.64675 -1.723,-3.2655 -2.71475,-4.83275 l -4.011,-0.001 c -1.0925,2.31675 -2.38575,4.58325 -3.60175,6.84125 -0.7165,1.33 -1.70275,3.10525 -3.273,3.51925 -1.69675,0.44725 -4.31625,-1.06425 -5.9035,-1.6255 -2.68,-0.9475 -5.28775,-1.53775 -7.77525,-2.9825 q -21.48175,-0.0768 -42.963,0.101 l -9.053,0.0228 c -6.079,0.007 -11.1944998,0.1445 -15.8169998,-4.48925 -2.249,-2.25425 -3.93774997,-5.19375 -4.43824997,-8.3605 -0.62975,-3.9825 -0.27775,-8.1725 -0.26975,-12.19425 l -0.005,-20.5155 -0.061,-75.140247 c 1.21074997,-1.70875 2.89449997,-3.192 4.36974997,-4.6745 l 7.4562998,-7.46155 10.3725,-10.3785 c 2.00525,-2.0245 3.92125,-4.14625 6.024,-6.072 0.712,-0.65225 1.33825,-1.17125004 2.227,-1.57100004 z"
     id="path14"
     style="stroke-width:0.25" />
  <path
     fill="#fefefe"
     d="m 70.162785,136.48527 c 1.20025,0.93825 2.4195,1.8085 3.683,2.65925 -0.208,0.92825 -0.383,1.88025 -0.64225,2.79475 -3.09275,-0.0873 -10.54825,0.46925 -12.97475,-0.45275 3.3495,-1.5935 6.58125,-3.413 9.934,-5.00125 z"
     id="path16"
     style="stroke-width:0.25" />
  <path
     fill="#f6ba65"
     d="m 28.420535,8.793773 c 0.24075,0.9255 0.21225,1.9375 0.22975,2.88975 0.049,2.687 -0.0295,5.36625 -0.0255,8.05175 0.0028,1.821 0.22775,3.91125 -0.104,5.69675 -0.1535,0.82625 -0.428,1.537 -1.0345,2.1355 -0.6105,0.60225 -1.35675,1.02425 -2.1945,1.211 -2.0115,0.44825 -4.27425,0.192 -6.32625,0.16675 l -9.7669998,-0.10675 -0.32225,-0.03775 -0.09,-0.16975 c 0.4265,-1.15175 17.2179998,-17.46175 19.6342498,-19.83725 z"
     id="path18"
     style="stroke-width:0.25" />
  <path
     fill="#dfdfdf"
     d="m 33.474285,5.334023 q 26.9145,-0.21225 53.829,-0.01775 l 14.602005,-0.0075 c 2.82,-0.0185 5.727,-0.30525 8.524,0.0945 2.245,0.321 4.422,1.24575 6.04925,2.85225 3.84175,3.793 3.26875,9.184 3.26375,14.1255 l -0.052,51.29975 c -0.88575,-0.64275 -1.763,-1.30375 -2.66575,-1.92225 q 0.5165,-3.5965 1.19625,-7.166 c 0.23725,-1.2945 0.54975,-2.60975 0.6985,-3.914 -0.5,-1.08725 -0.87625,-1.63925 -2.03625,-2.07775 l -0.159,-0.0585 c 0.131,-2.63175 0.007,-5.30525 0.005,-7.9415 l 0.002,-16.91775 c 0.0213,-4.10375 0.24275,-8.1925 0.22975,-12.3025 -0.005,-1.68475 0.0582,-3.40825 -0.1565,-5.08225 -0.32425,-2.528 -1.50175,-4.65775 -3.54725,-6.20125 -1.267,-0.956 -2.65925,-1.47 -4.2375,-1.626 -1.7235,-0.17 -3.51575,-0.01125 -5.2505,-0.04975 -7.008755,-0.15475 -14.025255,0.06375 -21.039005,0.0125 l -34.27075,0.002 q -3.842,0.02425 -7.684,-0.002 c -2.30225,-0.037 -4.69825,-0.23225 -6.98725,0.0735 -0.1865,0.34 -0.167,0.83 -0.1985,1.219 -0.18,-1.44175 -0.1275,-2.94075 -0.115,-4.39225 z"
     id="path20"
     style="stroke-width:0.25" />
  <path
     fill="#dfdfdf"
     d="m 5.0890352,33.816273 13.2199998,0.023 c 2.7175,0.0038 5.45775,0.0715 8.17125,-0.07475 -0.029,0.028 -0.0575,0.05675 -0.08675,0.0845 -1.66625,1.57975 -5.78025,1.15675 -7.96325,1.0735 -2.2375,-0.08525 -7.35825,-0.45075 -9.0644998,1.149 -0.50375,0.47225 -0.737,1.15675 -0.8605,1.82 -0.53775,2.888 -0.285,9.3125 -0.27425,12.37625 l -0.005,58.679497 0.0015,16.9985 c 5e-4,2.84675 -0.22575,5.877 0.112,8.69675 0.218,1.819 0.9645,3.5625 2.2692498,4.86625 2.51375,2.51125 6.02225,2.685 9.38825,2.647 4.30375,-0.0485 8.5975,-0.21075 12.90425,-0.20725 3.77075,0.003 7.5385,0.1265 11.30925,0.12525 2.033,-7.5e-4 4.05725,-0.10625 6.08825,-0.13175 2.25625,-0.0282 6.49225,0.247 8.4325,-0.43975 0.50225,0.027 1.0005,0.0815 1.4975,-0.0157 2.4265,0.922 9.882,0.3655 12.97475,0.45275 l -0.7405,3.86875 c -13.9275,-0.17425 -27.8755,0.0102 -41.80575,-0.017 l -9.486,-0.0115 c -2.49225,0.0102 -5.129,0.17575 -7.593,-0.22525 q -0.3645,-0.0588 -0.7235,-0.1455 -0.359,-0.0868 -0.71,-0.201 -0.35125,-0.1145 -0.69225,-0.25575 -0.34125,-0.141 -0.6705,-0.3085 -0.32925,-0.167 -0.6445,-0.35925 -0.3152498,-0.19225 -0.6147498,-0.4085 -0.29925,-0.216 -0.581,-0.45475 -0.28175,-0.23875 -0.54425,-0.4985 -0.157,-0.1555 -0.3075,-0.3175 -0.1505,-0.162 -0.29425,-0.33 -0.14375,-0.168 -0.28025,-0.34175 -0.13675,-0.17375 -0.26625,-0.353 -0.12925,-0.17925 -0.25125,-0.36375 -0.12175,-0.1845 -0.236,-0.37375 -0.114,-0.18925 -0.22025,-0.38325 -0.1065,-0.19375 -0.2045,-0.392 -0.09825,-0.198 -0.18825,-0.4 -0.09,-0.202 -0.1715,-0.4075 -0.0815,-0.20525 -0.1545,-0.414 -0.073,-0.20875 -0.13725,-0.42025 -0.0645,-0.2115 -0.12,-0.4255 -0.0555,-0.214 -0.10225,-0.43 -0.04675,-0.216 -0.0845,-0.434 -0.03775,-0.21775 -0.0665,-0.437 c -0.49725,-3.6155 -0.195,-7.50725 -0.1955,-11.15925 l -0.011,-20.3215 z"
     id="path22"
     style="stroke-width:0.25" />
  <path
     fill="#5f819b"
     d="m 106.13479,60.092273 q 3.67425,1.29225 7.38825,2.466 -0.1835,1.66675 -0.5255,3.3085 c -0.33275,1.606 -1.8265,6.484 -1.3845,7.74675 0.405,1.15675 6.52125,5.175 7.916,5.8665 2.23375,-0.545 6.944,-4.45625 9.09175,-6.01275 1.82025,2.7925 3.93775,5.42525 5.95325,8.07775 -1.60625,1.3645 -7.54075,6.007 -8.066,7.61175 -0.118,0.36075 -0.068,0.79575 0.009,1.16 0.2235,1.04875 0.78375,2.00775 1.10425,3.0265 0.643,2.04275 0.9345,4.086 1.90125,6.02075 3.13175,1.318997 7.57575,1.566497 10.961,2.091497 l -0.008,7.70575 c -2.4035,0.312 -8.66225,0.9045 -10.597,2.0055 -0.36,0.20475 -0.57075,0.425 -0.7505,0.80375 -0.60425,1.27325 -0.8485,2.7765 -1.2755,4.1215 -0.42625,1.343 -0.99075,2.625 -1.3545,3.991 1.5995,2.78025 6.04675,6.37575 8.54475,8.614 -1.619,2.28375 -3.3735,4.46175 -4.93125,6.79075 -3.57775,-1.82775 -7.06875,-4.1385 -10.85425,-5.4935 -1.39475,0.913 -2.596,2.1575 -3.87325,3.22725 -1.25975,1.055 -2.63475,1.9975 -3.95075,2.983 0.37425,3.723 1.093,7.408 1.46075,11.1435 q -3.139,1.168 -6.2595,2.3845 c -0.17175,0.0637 -0.4,0.072 -0.57875,0.0962 -1.63825,-0.83925 -4.12325,-8.3685 -5.846,-9.68575 -0.305005,-0.23325 -0.889255,-0.30675 -1.258755,-0.33925 -1.1375,-0.10075 -2.31925,0.0998 -3.46475,0.10225 -1.489,0.003 -2.95825,-0.19175 -4.4485,-0.0635 -3.02025,1.80675 -4.37275,7.59525 -6.14725,10.59875 -2.60675,-1.079 -5.27125,-2.044 -7.92475,-3.0005 1.04175,-3.1765 1.686,-6.45475 2.477,-9.6985 -0.0363,-0.0995 -0.072,-0.19925 -0.1115,-0.29775 -0.19825,-0.4965 -0.40325,-0.96475 -0.814,-1.3235 -1.03625,-0.9055 -2.45775,-1.482 -3.6115,-2.244 -1.501,-0.99175 -2.75675,-2.328 -4.429,-3.0435 -2.652,0.67025 -7.599,3.597 -10.2235,5.01 l -4.58525,-6.7555 c 1.57725,-1.606 3.24625,-3.15375 4.882,-4.7015 0.75425,-0.71375 1.6175,-1.391 2.27475,-2.191 0.34525,-0.42 0.733,-0.96025 0.8325,-1.50775 0.0763,-0.4205 -0.0155,-0.89425 -0.11875,-1.30275 -0.301,-1.1915 -0.9275,-2.28675 -1.27975,-3.46325 -0.327,-1.0925 -0.4315,-2.26075 -0.82625,-3.3305 -0.1115,-0.3025 -0.25575,-0.612 -0.44175,-0.876 -0.35125,-0.498 -0.95225,-0.75125 -1.51425,-0.9345 -1.37525,-0.448 -2.94025,-0.55325 -4.37,-0.758 q -2.873,-0.4205 -5.74075,-0.87525 l -0.005,-7.7575 c 2.056,-0.47075 10.03775,-1.35175 11.16275,-2.350997 0.3175,-0.282 0.54475,-0.66175 0.69725,-1.05475 0.34925,-0.9 0.43425,-1.89725 0.727,-2.81975 0.55275,-1.742 1.6765,-3.52725 1.77375,-5.3805 0.0288,-0.5475 -0.33525,-1.15575 -0.646,-1.58075 -0.7585,-1.03725 -1.8055,-1.90825 -2.7325,-2.79275 -1.3465,-1.28475 -2.692,-2.5745 -3.955,-3.9425 q 2.371,-3.58525 4.891,-7.06725 c 1.86975,0.94125 8.156,4.94625 9.92775,4.79625 0.37825,-0.032 0.76075,-0.24475 1.0785,-0.43875 0.84775,-0.5175 1.553,-1.2765 2.363,-1.85475 1.1835,-0.84525 2.47975,-1.5305 3.61475,-2.448 0.36475,-0.295 0.65975,-0.618 0.94825,-0.987 0.1435,-3.41325 -1.05725,-7.10425 -1.858,-10.412 2.35925,-0.86875 4.66675,-1.89175 6.98275,-2.86925 1.87725,1.115 3.18225,8.39975 5.39875,9.65125 0.4705,0.26575 1.124,0.33275 1.65425,0.35175 1.4565,0.0523 2.923,-0.27375 4.37925,-0.211 1.46,0.0633 3.49475,0.568 4.884005,0.0913 1.73925,-0.597 4.6645,-8.1315 5.48225,-9.97825 z"
     id="path24"
     style="stroke-width:0.25" />
  <path
     fill="#0f2740"
     d="m 95.069035,78.497023 0.11675,-0.006 c 6.379505,-0.258 13.196255,2.59075 17.868505,6.87125 q 0.23925,0.22 0.47325,0.446 0.23375,0.22575 0.462,0.4575 0.22825,0.2315 0.45075,0.46875 0.2225,0.237 0.439,0.47975 0.2165,0.2425 0.427,0.49025 0.2105,0.248 0.41475,0.50075 0.20425,0.253 0.40225,0.511 0.198,0.25775 0.3895,0.5205 0.1915,0.26275 0.37675,0.53025 0.185,0.26725 0.36325,0.539 0.1785,0.272 0.35,0.54825 0.17175,0.276 0.3365,0.55625 0.16475,0.2805 0.3225,0.56475 0.15775,0.28425 0.3085,0.57225 0.15075,0.28825 0.2945,0.58 0.1435,0.2915 0.27975,0.58675 0.1365,0.29525 0.2655,0.59375 0.129,0.2985 0.25075,0.6 0.1215,0.3015 0.23575,0.606 0.114,0.30425 0.22075,0.6115 0.1065,0.30725 0.2055,0.617 0.099,0.30975 0.1905,0.62175 0.0913,0.312 0.17475,0.62625 0.0838,0.31425 0.1595,0.63025 0.076,0.31625 0.144,0.63425 0.068,0.318 0.128,0.6375 0.0602,0.319497 0.1125,0.640497 0.0522,0.32075 0.0965,0.643 0.0445,0.322 0.0807,0.64525 0.0363,0.323 0.0648,0.647 0.0283,0.32375 0.0488,0.64825 0.0203,0.3245 0.0327,0.6495 c 0.27525,7.0065 -2.49925,14.168 -7.26,19.28125 -4.9095,5.2735 -11.44275,8.41925 -18.668005,8.6545 q -0.58875,0.0123 -1.17775,-0.002 -0.58875,-0.0145 -1.17625,-0.0558 -0.5875,-0.0412 -1.1725,-0.1095 -0.585,-0.068 -1.16625,-0.1625 -0.58125,-0.0945 -1.15775,-0.2155 -0.5765,-0.12075 -1.14675,-0.268 -0.57025,-0.147 -1.13325,-0.31975 -0.56325,-0.17275 -1.11775,-0.371 -0.5545,-0.1985 -1.0995,-0.42175 -0.545,-0.22325 -1.07925,-0.47125 -0.53425,-0.24775 -1.05675,-0.51975 -0.52225,-0.272 -1.03175,-0.5675 -0.5095,-0.2955 -1.005,-0.61375 -0.49575,-0.31825 -0.97625,-0.659 -0.4805,-0.3405 -0.945,-0.7025 -0.4645,-0.36225 -0.912,-0.745 -0.25325,-0.2175 -0.501,-0.441 -0.24775,-0.22375 -0.49,-0.45325 -0.24225,-0.22975 -0.47875,-0.46525 -0.2365,-0.23575 -0.467,-0.477 -0.23075,-0.24125 -0.45525,-0.48825 -0.2245,-0.247 -0.443,-0.49925 -0.2185,-0.2525 -0.4305,-0.51025 -0.21225,-0.25775 -0.41775,-0.5205 -0.20575,-0.263 -0.405,-0.53075 -0.19925,-0.26775 -0.39175,-0.5405 -0.1925,-0.27275 -0.378,-0.55 -0.18575,-0.2775 -0.3645,-0.55925 -0.179,-0.282 -0.35075,-0.568 -0.17175,-0.28625 -0.3365,-0.5765 -0.16475,-0.2905 -0.322,-0.58475 -0.1575,-0.29425 -0.30775,-0.59225 -0.15025,-0.29825 -0.293,-0.6 -0.14275,-0.3015 -0.278,-0.60675 -0.13525,-0.30525 -0.263,-0.6135 -0.12775,-0.3085 -0.248,-0.61975 -0.12,-0.3115 -0.23225,-0.62575 -0.1125,-0.3145 -0.217,-0.63125 -0.10475,-0.317 -0.20125,-0.6365 -0.0967,-0.3195 -0.18575,-0.64125 -0.0888,-0.32175 -0.1695,-0.64575 -0.081,-0.32375 -0.15375,-0.6495 -0.073,-0.32575 -0.13775,-0.65325 -0.0648,-0.32725 -0.1215,-0.65625 -0.0565,-0.329 -0.10525,-0.65925 -0.0485,-0.33025 -0.0888,-0.6615 -0.0405,-0.33125 -0.0728,-0.6635 -0.0323,-0.33225 -0.0563,-0.66525 -0.022,-0.3265 -0.036,-0.6535 -0.0137,-0.327 -0.0197,-0.65425 -0.006,-0.32725 -0.004,-0.65475 0.002,-0.32725 0.0125,-0.65425 0.0103,-0.32725 0.0285,-0.654 0.0182,-0.32675 0.0445,-0.653 0.0263,-0.3265 0.0605,-0.652 0.0343,-0.3255 0.0765,-0.65 0.0422,-0.3245 0.0925,-0.648 0.0503,-0.3235 0.1085,-0.6455 0.058,-0.322 0.12425,-0.642747 0.066,-0.3205 0.14,-0.63925 0.0737,-0.319 0.1555,-0.636 0.0817,-0.31675 0.17125,-0.63175 0.0895,-0.31475 0.18675,-0.62725 0.0973,-0.3125 0.202,-0.6225 0.105,-0.31025 0.2175,-0.6175 0.1125,-0.3075 0.23225,-0.612 0.12,-0.3045 0.2475,-0.606 0.1275,-0.3015 0.26225,-0.59975 0.13475,-0.29825 0.27675,-0.59325 0.14225,-0.29475 0.2915,-0.586 0.14925,-0.29125 0.30575,-0.57875 0.15625,-0.2875 0.31975,-0.57125 0.1635,-0.2835 0.33375,-0.563 0.1705,-0.2795 0.3475,-0.55475 0.17725,-0.27525 0.361,-0.546 0.184,-0.27075 0.3745,-0.537 0.1905,-0.266 0.38725,-0.5275 0.197,-0.2615 0.4005,-0.518 0.20325,-0.2565 0.41275,-0.50775 0.2095,-0.2515 0.42525,-0.49775 c 5.23875,-5.93325 11.83975,-8.5685 19.619,-9.0795 z"
     id="path26"
     style="stroke-width:0.25" />
  <path
     fill="#dfdfdf"
     d="m 94.414535,83.494273 c 0.0182,-0.003 0.0362,-0.007 0.0545,-0.009 4.909,-0.44025 10.035255,1.475 13.892505,4.44525 q 0.20825,0.16025 0.4125,0.32525 0.204,0.16525 0.404,0.3355 0.20025,0.17025 0.396,0.3455 0.19575,0.175 0.387,0.355 0.19125,0.18 0.37825,0.3645 0.18675,0.18475 0.369,0.37375 0.18225,0.18925 0.35975,0.383 0.1775,0.1935 0.35,0.3915 0.17275,0.198 0.34025,0.40025 0.16775,0.202 0.33025,0.4085 0.16275,0.20625 0.32025,0.4165 0.15725,0.21025 0.3095,0.42425 0.15225,0.214 0.299,0.43175 0.14675,0.218 0.28825,0.43925 0.1415,0.22125 0.27725,0.446 0.136,0.225 0.26625,0.453 0.13025,0.228 0.25475,0.45925 0.1245,0.23125 0.24325,0.4655 0.119,0.23425 0.232,0.4715 0.11275,0.237 0.22,0.477 0.107,0.23975 0.208,0.48225 0.10125,0.2425 0.19625,0.48725 0.095,0.245 0.184,0.492 0.089,0.24725 0.17175,0.4965 0.0828,0.24925 0.15925,0.5005 0.0768,0.25125 0.147,0.50425 0.0705,0.253 0.1345,0.50775 0.064,0.25475 0.12175,0.510997 0.0577,0.25625 0.10925,0.51375 0.0512,0.2575 0.0962,0.5165 0.045,0.25875 0.0835,0.5185 0.0388,0.25975 0.0708,0.5205 0.034,0.27125 0.0613,0.543 0.027,0.272 0.0475,0.5445 0.0205,0.2725 0.034,0.5455 0.0135,0.273 0.0203,0.54625 0.007,0.27325 0.007,0.5465 0,0.27325 -0.007,0.5465 -0.007,0.27325 -0.0205,0.54625 -0.0138,0.27275 -0.0343,0.5455 -0.0205,0.2725 -0.048,0.54425 -0.0273,0.272 -0.0613,0.54325 -0.0342,0.271 -0.075,0.54125 -0.041,0.27025 -0.0885,0.5395 -0.0475,0.269 -0.102,0.53675 -0.0542,0.268 -0.11525,0.5345 -0.061,0.26625 -0.1285,0.531 -0.0678,0.26475 -0.14175,0.528 -0.0743,0.263 -0.155,0.524 -0.0808,0.261 -0.168,0.52 -0.0873,0.259 -0.181,0.51575 -0.0937,0.25675 -0.19375,0.51125 -0.1,0.25425 -0.2065,0.506 -0.10625,0.25175 -0.219,0.50075 -0.11275,0.249 -0.2315,0.495 -0.11875,0.24625 -0.24375,0.48925 -0.125,0.243 -0.256,0.483 -0.13075,0.23975 -0.26775,0.47625 -0.137,0.2365 -0.27975,0.4695 -0.14275,0.23325 -0.29125,0.4625 -0.1485,0.2295 -0.30275,0.455 -0.15425,0.22575 -0.314,0.44725 -0.16,0.22175 -0.32525,0.4395 -0.16525,0.2175 -0.336,0.431 c -3.798,4.779 -9.36825,7.432 -15.347005,8.14125 -5.4845,0.2605 -10.4365,-1.0745 -14.72725,-4.60775 q -0.208,-0.1705 -0.41175,-0.346 -0.20375,-0.1755 -0.403,-0.356 -0.19925,-0.1805 -0.394,-0.36575 -0.19475,-0.1855 -0.385,-0.3755 -0.19025,-0.19025 -0.3755,-0.385 -0.1855,-0.19475 -0.366,-0.394 -0.1805,-0.19925 -0.356,-0.403 -0.17575,-0.2035 -0.346,-0.4115 -0.1705,-0.208 -0.33575,-0.42 -0.1655,-0.21225 -0.3255,-0.42825 -0.16,-0.21625 -0.3145,-0.43625 -0.1545,-0.22 -0.30375,-0.44375 -0.149,-0.22375 -0.29275,-0.451 -0.1435,-0.2275 -0.2815,-0.45825 -0.13775,-0.23075 -0.27,-0.465 -0.132,-0.23425 -0.2585,-0.4715 -0.12625,-0.2375 -0.2465,-0.478 -0.1205,-0.24025 -0.235,-0.48375 -0.1145,-0.24325 -0.22275,-0.48925 -0.1085,-0.24625 -0.21075,-0.49475 -0.10225,-0.24875 -0.1985,-0.5 -0.096,-0.251 -0.186,-0.5045 -0.0898,-0.25325 -0.1735,-0.509 -0.0835,-0.2555 -0.16075,-0.513 -0.0772,-0.2575 -0.14825,-0.517 -0.0708,-0.2595 -0.13525,-0.5205 -0.0645,-0.261 -0.1225,-0.5235 -0.058,-0.26275 -0.10925,-0.5265 -0.0515,-0.264 -0.0965,-0.529 -0.045,-0.26525 -0.0832,-0.5315 -0.0385,-0.266 -0.0702,-0.533 -0.0318,-0.267 -0.057,-0.53475 c -0.53425,-5.593 1.106,-11.378747 4.7,-15.727247 4.10175,-4.9625 9.4595,-7.4685 15.8065,-8.04975 z"
     id="path28"
     style="stroke-width:0.25" />
  <path
     fill="#0f2740"
     d="m 93.730035,89.862273 c 3.442,-0.49 7.452255,0.69475 10.253755,2.68825 q 0.306,0.219 0.60075,0.453 0.29475,0.23375 0.57775,0.482 0.28275,0.248 0.553,0.51 0.27025,0.26175 0.52725,0.53675 0.257,0.27475 0.5,0.562 0.243,0.28725 0.47175,0.58625 0.2285,0.299 0.442,0.60875 0.2135,0.31 0.4115,0.63 0.19775,0.32 0.37975,0.6495 0.18175,0.3295 0.347,0.6675 0.1655,0.338 0.31375,0.68375 0.1485,0.34575 0.27975,0.6985 0.131,0.35275 0.2445,0.711497 0.1135,0.35875 0.20925,0.72275 0.0958,0.364 0.17325,0.73225 0.0775,0.36825 0.13675,0.73975 0.06,0.37075 0.1015,0.74425 0.0417,0.37325 0.065,0.74825 0.0232,0.375 0.028,0.7505 0.005,0.37575 -0.009,0.751 -0.0135,0.3755 -0.0455,0.74975 -0.032,0.37425 -0.0823,0.7465 -0.0505,0.37225 -0.119,0.74175 -0.0685,0.36925 -0.15525,0.73475 -0.0865,0.36575 -0.191,0.7265 -0.10425,0.36075 -0.22625,0.716 -0.122,0.3555 -0.2615,0.70425 -0.13925,0.349 -0.2955,0.6905 -0.15625,0.34175 -0.329,0.67525 -0.173,0.3335 -0.362,0.658 -0.189,0.32475 -0.3935,0.63975 -0.20475,0.315 -0.42475,0.6195 c -2.6805,3.6915 -6.3685,5.66575 -10.818255,6.37825 -3.7345,0.31725 -7.34625,-0.5385 -10.382,-2.78725 q -0.30475,-0.22575 -0.598,-0.466 -0.29325,-0.2405 -0.57425,-0.49525 -0.281,-0.2545 -0.54925,-0.52275 -0.268,-0.268 -0.52275,-0.549 -0.2545,-0.28125 -0.495,-0.5745 -0.24025,-0.29325 -0.466,-0.598 -0.2255,-0.30475 -0.43575,-0.62025 -0.2105,-0.3155 -0.405,-0.64125 -0.1945,-0.3255 -0.3725,-0.66025 -0.17825,-0.33475 -0.33975,-0.67775 -0.1615,-0.34325 -0.30575,-0.69375 -0.14425,-0.35075 -0.27125,-0.70825 -0.12675,-0.35725 -0.23575,-0.7205 -0.10925,-0.363 -0.20025,-0.73125 -0.091,-0.368 -0.16375,-0.74025 -0.0727,-0.37225 -0.127,-0.7475 -0.0555,-0.38275 -0.0915,-0.768 -0.0363,-0.385 -0.0533,-0.7715 -0.0168,-0.38625 -0.0143,-0.77325 0.003,-0.38675 0.0245,-0.77275 0.0217,-0.38625 0.063,-0.77075 0.0413,-0.38475 0.1015,-0.76675 0.0605,-0.382 0.14,-0.7605 0.0795,-0.37875 0.17775,-0.75275 0.0983,-0.374 0.21525,-0.74275 0.11675,-0.36875 0.252,-0.731247 0.13525,-0.36225 0.2885,-0.7175 0.15325,-0.355 0.324,-0.70225 0.17075,-0.347 0.35875,-0.685 0.188,-0.338 0.3925,-0.66625 0.20475,-0.32825 0.4255,-0.64575 0.22075,-0.31775 0.45725,-0.62375 c 2.60925,-3.4425 6.26,-5.25075 10.47875,-5.85275 z"
     id="path30"
     style="stroke-width:0.25" />
  <path
     fill="#f4dcb5"
     d="m 94.374535,94.735523 c 2.30375,-0.348 4.93325,0.4665 6.800755,1.80725 2.22075,1.5945 3.64625,4.084247 4.06425,6.770997 q 0.0418,0.26125 0.0703,0.52425 0.0285,0.263 0.044,0.52725 0.0153,0.26425 0.0175,0.52875 0.002,0.2645 -0.009,0.529 -0.0112,0.26425 -0.0355,0.52775 -0.0245,0.2635 -0.0618,0.52525 -0.0377,0.262 -0.0882,0.52175 -0.0505,0.25975 -0.114,0.5165 -0.0635,0.257 -0.13975,0.51025 -0.0763,0.25325 -0.165,0.5025 -0.089,0.24925 -0.19,0.49375 -0.10125,0.2445 -0.2145,0.4835 -0.1135,0.23925 -0.2385,0.47225 -0.12525,0.23325 -0.26175,0.45975 -0.13675,0.2265 -0.2845,0.446 -0.148,0.2195 -0.3065,0.43125 c -1.87575,2.4995 -4.430255,3.7635 -7.470505,4.21425 -2.19625,0.21075 -4.74375,-0.731 -6.50725,-1.991 q -0.21175,-0.15 -0.41575,-0.31025 -0.20425,-0.16025 -0.4,-0.3305 -0.19575,-0.17025 -0.383,-0.35 -0.187,-0.17975 -0.365,-0.3685 -0.178,-0.189 -0.3465,-0.3865 -0.16825,-0.19725 -0.3265,-0.403 -0.1585,-0.2055 -0.30625,-0.41875 -0.148,-0.21325 -0.28525,-0.4335 -0.137,-0.22025 -0.263,-0.447 -0.126,-0.227 -0.24075,-0.45975 -0.1145,-0.23275 -0.21725,-0.471 -0.103,-0.23825 -0.19375,-0.48125 -0.091,-0.243 -0.16975,-0.49025 -0.0785,-0.24725 -0.145,-0.49825 -0.0663,-0.25075 -0.12,-0.50475 -0.0538,-0.25375 -0.0948,-0.51 c -0.442,-2.7285 0.329,-5.562 1.96175,-7.777247 1.82175,-2.472 4.4145,-3.7145 7.40075,-4.16075 z"
     id="path32"
     style="stroke-width:0.25" />
  <path
     fill="#fefefe"
     d="m 33.589285,9.726273 c 0.0315,-0.389 0.012,-0.879 0.1985,-1.219 2.289,-0.30575 4.685,-0.1105 6.98725,-0.0735 q 3.842,0.02625 7.684,0.002 l 34.27075,-0.002 c 7.01375,0.05125 14.03025,-0.16725 21.039005,-0.0125 1.73475,0.0385 3.527,-0.12025 5.2505,0.04975 1.57825,0.156 2.9705,0.67 4.2375,1.626 2.0455,1.5435 3.223,3.67325 3.54725,6.20125 0.21475,1.674 0.15125,3.3975 0.1565,5.08225 0.013,4.11 -0.2085,8.19875 -0.22975,12.3025 l -0.001,16.91775 c 0.002,2.63625 0.12575,5.30975 -0.005,7.9415 l -6.9895,-2.54825 c -1.354,-0.49175 -2.7685,-1.11275 -4.17525,-1.41325 -0.551,-0.11775 -1.18075,-0.21925 -1.71725,0.008 -0.6,0.2535 -1.11125,1.09825 -1.441,1.64025 -0.78625,1.2925 -1.34425,2.7425 -2.0025,4.10375 -0.756005,1.563 -1.660005,3.117 -2.279005,4.73625 l -5.12075,0.0293 -3.01525,-5.57675 c -0.68025,-1.26675 -1.305,-2.68175 -2.20025,-3.811 -0.401,-0.50575 -0.964,-1.061 -1.615,-1.214 -0.62925,-0.14775 -1.5125,0.15225 -2.1185,0.3505 -1.86175,0.609 -3.593,1.54675 -5.40225,2.28525 -1.8,0.7345 -3.85525,1.24025 -5.475,2.31825 -0.46775,0.31125 -0.774,0.66325 -1.0685,1.1365 -0.11575,3.4655 0.964,7.16575 1.6995,10.53975 q -1.54325,1.213 -3.04475,2.47725 -2.68275,-1.2895 -5.30625,-2.69525 c -1.15225,-0.6185 -2.31575,-1.39275 -3.53575,-1.8635 -0.6015,-0.232 -1.30025,-0.46675 -1.94925,-0.3065 -1.67975,0.41525 -4.82075,5.98125 -5.86525,7.501 -1.06625,1.55175 -2.43425,3.02725 -3.20625,4.753 -0.12675,0.28325 -0.225,0.56475 -0.3015,0.865 1.45975,3.13525 5.212,6.24475 7.73825,8.602 -0.70425,1.39125 -1.0915,2.778 -1.45925,4.28425 -1.972,0.32975 -10.84725,1.6885 -11.88025,3.08775 -0.9295,1.25875 -0.77625,12.263747 -0.27675,14.013497 0.1445,0.507 0.38625,1.19625 0.8635,1.47925 1.866,1.106 8.766,1.6265 11.32625,2.1655 0.3985,1.42875 0.801,2.84575 1.34125,4.2295 -1.51475,1.404 -8.0305,7.0605 -8.02025,8.79175 0.0115,1.9465 6.17225,11.01425 7.7775,12.46675 q 0.33475,0.302 0.7265,0.52475 c -1.94025,0.68675 -6.17625,0.4115 -8.4325,0.43975 -2.031,0.0255 -4.05525,0.131 -6.08825,0.13175 -3.77075,0.001 -7.5385,-0.12225 -11.30925,-0.12525 -4.30675,-0.004 -8.6005,0.15875 -12.90425,0.20725 -3.366,0.038 -6.8745,-0.13575 -9.38825,-2.647 -1.3047498,-1.30375 -2.0512498,-3.04725 -2.2692498,-4.86625 -0.33775,-2.81975 -0.1115,-5.85 -0.112,-8.69675 l -0.0015,-16.9985 0.005,-58.679497 c -0.0115,-3.0643 -0.26425,-9.4888 0.2735,-12.3768 0.1235,-0.66325 0.35675,-1.34775 0.8605,-1.82 1.7062498,-1.59975 6.8269998,-1.23425 9.0644998,-1.149 2.183,0.08325 6.297,0.50625 7.96325,-1.0735 0.02925,-0.02775 0.05775,-0.0565 0.08675,-0.0845 1.64725,-0.591 3.19,-1.21525 4.466,-2.45475 1.1805,-1.1465 1.975,-2.59925 2.367,-4.1935 0.59075,-2.403 0.30675,-5.1085 0.291,-7.5695 q -0.0515,-4.91025 -0.015,-9.8205 z"
     id="path34"
     style="stroke-width:0.25" />
  <path
     fill="#0f2740"
     d="m 85.124035,16.948273 c 0.40125,-0.03925 0.83525,-0.03675 1.22125,0.094 1.287,0.436 6.12,5.96025 7.23275,7.0955 1.69525,1.73025 3.517,3.3555 5.12175,5.17075 0.59175,0.6695 1.10875,1.3125 1.513505,2.11225 -0.258505,0.7125 -0.544505,1.2765 -1.033255,1.85975 -1.13675,1.357 -2.61575,2.52775 -3.87625,3.7825 -2.21925,2.209 -5.37525,5.86725 -7.73725,7.5765 -0.508,0.36775 -1.0715,0.64075 -1.7075,0.67775 -0.3835,0.02225 -0.775,-0.08225 -1.04475,-0.371 -0.30325,-0.325 -0.40475,-0.79425 -0.412,-1.22575 -0.0113,-0.65825 0.228,-1.29675 0.59275,-1.838 1.447,-2.1475 6.2325,-6.26275 8.3275,-8.33425 -8.319,0.17925 -16.68375,-0.0048 -25.0075,-0.0067 -2.042,2.98425 -3.8475,6.105 -5.6815,9.21925 -2.531,3.84925 -4.72125,7.9365 -7.059,11.905 -0.4985,0.84625 -1.3175,2.43425 -2.3845,2.6 -0.46425,0.072 -0.98125,-0.0902 -1.34325,-0.389 -0.386,-0.31875 -0.5595,-0.801 -0.583,-1.29 -0.0368,-0.75775 0.22225,-1.465 0.56425,-2.1285 0.84325,-1.63525 1.9425,-3.211 2.9025,-4.7855 l 5.07,-8.4185 q 1.54675,-2.5578 3.06725,-5.1313 c 0.92375,-1.59125 1.84425,-3.6355 3.1055,-4.9715 0.461,-0.48825 1.35275,-0.52925 2.00225,-0.582 2.65375,-0.21575 5.457,-0.0045 8.1265,-0.0017 l 17.17225,0.0042 c -1.906,-2.465 -4.31875,-4.683 -6.5045,-6.9115 -0.87525,-0.89225 -1.85175,-1.77625 -2.586,-2.79125 -0.3325,-0.45975 -0.563,-0.95225 -0.40475,-1.533 0.18725,-0.68675 0.78075,-1.0325 1.345,-1.388 z"
     id="path36"
     style="stroke-width:0.25" />
  <path
     fill="#0f2740"
     d="m 19.279104,36.6122 c 1.36925,-0.0865 2.74825,0.0018 4.1195,0.0055 l 8.63875,0.03475 c 2.508,0.02375 5.2145,-0.237 7.695001,0.12375 0.6265,0.09125 1.132,0.14625 1.5175,0.7 0.2915,0.41825 0.348,0.869 0.38925,1.3655 0.30825,3.715 0.0605,7.59675 0.0653,11.3285 0.004,3.292753 0.3155,8.892253 -0.20875,11.892503 -0.3935,0.441 -0.74325,0.792 -1.24025,1.122 l -2.071251,-0.004 c -2.9935,-0.007 -20.34125,0.4675 -21.81075,-0.35775 -0.26175,-0.147 -0.38175,-0.73225 -0.442,-1.008 -0.51675,-2.3605 -0.26,-7.22875 -0.264,-9.847 -0.006,-4.068253 -0.182,-8.235503 0.07925,-12.290753 0.03625,-0.562 0.08725,-1.9765 0.47325,-2.38925 0.56375,-0.6025 2.27375,-0.6145 3.05925,-0.676 z"
     id="path38"
     style="stroke-width:0.25" />
  <path
     fill="#df7f76"
     d="m 19.088104,39.93545 11.9725,-0.0045 c 2.436,0 4.91575,-0.0965 7.34325,0.0935 0.1765,6.58575 0.0657,13.198753 0.063,19.787753 l -19.376,7.5e-4 z"
     id="path40"
     style="stroke-width:0.25" />
  <path
     fill="#0f2740"
     d="m 34.611854,43.4167 c 0.6715,-0.016 1.38425,0.03875 1.92375,0.491 0.301,0.25225 0.44275,0.601 0.44025,0.9905 -10e-4,0.24 -0.05,0.47025 -0.1695,0.67975 -0.7625,1.3365 -2.09525,2.51125 -3.11125,3.66275 -1.5305,1.734753 -2.96225,3.593503 -4.65325,5.179003 -0.4855,0.45525 -1.1015,0.9005 -1.80725,0.8385 -1.36675,-0.1205 -3.433,-3.0075 -4.2905,-4.00225 -0.78425,-0.794003 -2.19125,-1.932003 -2.342,-3.097253 -0.05575,-0.43 0.09375,-0.80325 0.37625,-1.1215 0.331,-0.37275 0.72975,-0.61875 1.2345,-0.63475 1.55775,-0.0493 4.37225,3.314 5.379,4.382503 2.32925,-2.464253 4.3585,-5.240503 7.02,-7.368253 z"
     id="path42"
     style="stroke-width:0.25" />
  <path
     fill="#0f2740"
     d="m 28.350612,103.29025 c 0.24125,-0.006 0.4745,-0.0132 0.714,0.0255 0.31075,0.0505 0.6015,0.128 0.83025,0.36025 1.25075,1.26975 1.36675,5.43475 1.91875,7.2595 0.46675,1.54325 1.22875,2.97325 2.174,4.27575 3.64525,5.0225 11.012503,4.66075 12.092503,6.4335 0.17925,0.294 0.19675,0.594 0.0943,0.91925 -0.54675,1.73325 -3.9255,2.1365 -5.43475,2.62925 q -1.623503,0.52075 -3.108253,1.35875 c -3.02975,1.7315 -5.19325,5.30675 -6.0505,8.63875 -0.32725,1.2715 -0.42425,2.603 -0.78625,3.86375 -0.314,1.09275 -0.653,1.8265 -1.67225,2.3865 -0.28975,0.002 -0.62575,-5e-4 -0.9055,-0.0865 -1.687,-0.5185 -1.95325,-4.74 -2.335,-6.25 q -0.205,-0.84 -0.49625,-1.65425 -0.2915,-0.814 -0.66625,-1.59325 c -1.7345,-3.53125 -4.86375,-5.90225 -8.5955,-7.01325 -1.2665,-0.37725 -2.63975,-0.54125 -3.871,-1.00925 -0.45225,-0.172 -0.81025,-0.57825 -0.989,-1.02325 -0.136,-0.3385 -0.13125,-0.60675 0.02675,-0.94075 0.674,-1.42525 5.3115,-2.1985 6.83225,-2.762 4.51525,-1.67275 6.99375,-5.0115 7.88525,-9.70125 0.31825,-1.67425 0.463,-3.60925 1.21875,-5.145 0.27425,-0.55775 0.54875,-0.75975 1.12375,-0.972 z"
     id="path6"
     style="stroke-width:0.25" />
  <path
     fill="#f6ba65"
     d="m 28.471287,111.89968 c 0.64175,0.61225 0.8425,1.8425 1.2145,2.64975 1.8255,3.96275 4.984,6.13425 8.97025,7.58225 q -0.644,0.2425 -1.28,0.50475 c -4.629,1.93275 -6.84825,5.76125 -8.6885,10.19075 -0.4315,-0.148 -1.623,-3.58775 -2.01825,-4.22225 -1.83225,-2.941 -4.91275,-4.84925 -7.9215,-6.38975 5.20325,-2.27575 7.48375,-5.22 9.7235,-10.3155 z"
     id="path8"
     style="stroke-width:0.25" />
  <path
     fill="#0f2740"
     d="m 28.05859,64.591753 c 0.11375,-0.008 0.22725,-0.0175 0.341,-0.0215 0.714,-0.0247 1.2375,0.0688 1.70375,0.65275 0.9185,1.15125 1.11575,3.84675 1.5575,5.32225 0.5125,1.7125 1.226,3.412 2.22,4.903 q 0.159,0.234 0.328,0.46125 0.169,0.227 0.3475,0.4465 0.17875,0.21975 0.3665,0.4315 0.18775,0.21175 0.3845,0.41525 0.1965,0.2035 0.40175,0.3985 0.20525,0.19475 0.4185,0.38075 0.2135,0.186 0.4345,0.36275 0.22125,0.17675 0.44975,0.34375 0.2285,0.167 0.46375,0.324 0.2355,0.15725 0.4775,0.304 0.242,0.147 0.49,0.28325 0.248,0.1365 0.5015,0.262 0.2535,0.12575 0.51225,0.2405 0.258745,0.11475 0.522245,0.21825 0.2635,0.1035 0.531,0.1955 0.26775,0.0923 0.539,0.17275 c 1.32075,0.385 3.87025,0.57475 4.842,1.565 0.3315,0.33775 0.58325,0.87625 0.5145,1.359 -0.2275,1.59575 -4.16325,2.1945 -5.4235,2.6325 q -1.49625,0.52575 -2.853495,1.34675 c -3.281,1.9755 -5.61825,5.30775 -6.683,8.96125 -0.313,1.07425 -0.447,2.1875 -0.71625,3.272 -0.24425,0.983247 -0.48575,1.639497 -1.37975,2.179997 -0.2135,0.027 -0.43475,0.035 -0.648,0.002 -0.55475,-0.0842 -1.152,-0.36625 -1.45025,-0.85475 -0.539,-0.88325 -0.6625,-2.250997 -0.8735,-3.248497 -0.559,-2.6425 -1.434,-5.149 -3.07975,-7.3215 -1.5255,-2.01425 -3.71425,-3.44775 -6.0715,-4.322 -1.6335,-0.60575 -5.052675,-0.816 -6.049075,-2.35175 -0.167475,-0.258 -0.241625,-0.5335 -0.1528,-0.83775 0.452825,-1.55025 4.829875,-2.1595 6.194125,-2.63975 q 0.805,-0.289 1.57525,-0.661 0.77,-0.372 1.49675,-0.82325 c 4.25775,-2.6545 5.14175,-7.17025 6.20425,-11.71175 0.2825,-1.20825 0.4725,-1.96525 1.5635,-2.644 z"
     id="path10"
     style="stroke-width:0.25" />
  <path
     fill="#f6ba65"
     d="m 28.358787,73.439623 c 0.6165,0.59675 1.05675,2.003 1.494,2.78125 1.9875,3.53875 4.751,5.68425 8.273,7.54675 -4.69425,2.77525 -7.1265,5.2945 -9.322,10.28775 l -0.1,0.0915 c -0.58375,-0.455 -1.31075,-2.465 -1.734,-3.209 -1.78875,-3.14375 -4.616,-5.415 -7.69175,-7.21775 4.64675,-2.6505 7.07525,-5.3355 9.08075,-10.2805 z"
     id="path12"
     style="stroke-width:0.25" />
</svg>
